<svg
  width="48"
  height="48"
  viewBox="0 0 48 48"
  fill="none"
  xmlns="http://www.w3.org/2000/svg"
>
  <rect
    x="0.897705"
    y="1.38965"
    width="46"
    height="46"
    rx="23"
    stroke="#FF4233"
  />
  <path
    d="M18.0017 32.6731V30.0571C18.5217 29.6651 19.1377 29.1811 19.8497 28.6051C20.5617 28.0211 21.2937 27.3931 22.0457 26.7211C22.7977 26.0411 23.4937 25.3611 24.1337 24.6811C24.7737 24.0011 25.2937 23.3531 25.6937 22.7371C26.1017 22.1211 26.3057 21.5931 26.3057 21.1531C26.3057 20.6651 26.1857 20.2211 25.9457 19.8211C25.7057 19.4131 25.3857 19.0891 24.9857 18.8491C24.5937 18.6091 24.1537 18.4891 23.6657 18.4891C23.1777 18.4891 22.7337 18.6091 22.3337 18.8491C21.9337 19.0891 21.6137 19.4131 21.3737 19.8211C21.1337 20.2211 21.0137 20.6651 21.0137 21.1531H18.0857C18.0857 20.0971 18.3417 19.1491 18.8537 18.3091C19.3657 17.4611 20.0417 16.7931 20.8817 16.3051C21.7297 15.8091 22.6577 15.5611 23.6657 15.5611C24.6897 15.5611 25.6217 15.8131 26.4617 16.3171C27.3017 16.8131 27.9737 17.4851 28.4777 18.3331C28.9817 19.1811 29.2337 20.1211 29.2337 21.1531C29.2337 21.6971 29.1337 22.2451 28.9337 22.7971C28.7337 23.3491 28.4537 23.9051 28.0937 24.4651C27.7337 25.0251 27.3097 25.5931 26.8217 26.1691C26.3337 26.7371 25.7937 27.3211 25.2017 27.9211C24.6177 28.5131 24.0017 29.1211 23.3537 29.7451H29.3177V32.6731H18.0017Z"
    fill="#FF4233"
  />
</svg>
